<svg width="34" height="34" viewBox="0 0 34 34" fill="none" xmlns="http://www.w3.org/2000/svg">
<path d="M19.7069 16.4583C19.5393 16.4583 19.3837 16.4122 19.2454 16.3381V16.34C19.2454 16.6037 19.143 16.8514 18.957 17.0369C18.771 17.2228 18.5236 17.3253 18.2602 17.3253C18.0901 17.3253 17.9325 17.2781 17.7928 17.202C17.7787 17.4432 17.6823 17.6687 17.5102 17.8409C17.3243 18.0269 17.0768 18.1294 16.8132 18.1294C16.2896 18.1294 15.8644 17.7178 15.8337 17.2018C15.6717 17.2894 15.4885 17.3353 15.2996 17.3232C14.7845 17.2894 14.381 16.8443 14.381 16.3097V11.8781L13.8764 12.7523C13.6842 13.0867 13.3244 13.2943 12.9371 13.2943C12.7483 13.2943 12.5619 13.2448 12.3967 13.1502C12.1911 13.0309 12.044 12.8396 11.9828 12.6106C11.9213 12.3815 11.9531 12.1419 12.072 11.9366C12.0722 11.9366 13.7231 9.07768 13.8238 8.90207C13.8358 8.87567 13.8699 8.79908 13.8989 8.73381C13.9266 8.6715 13.9504 8.60754 13.9732 8.54325C14.4711 7.13769 15.7038 6.26459 17.1906 6.26459C19.1213 6.26459 20.692 7.9678 20.692 10.0614L20.6921 15.4729C20.6921 15.7362 20.5898 15.9837 20.404 16.1698C20.218 16.3558 19.9706 16.4583 19.7069 16.4583L19.7069 16.4583ZM17.1906 6.78813C15.9131 6.78813 14.8948 7.50972 14.4667 8.71834C14.4393 8.79509 14.4108 8.87184 14.3775 8.94662C14.2809 9.16326 14.2809 9.16326 14.2536 9.19441L14.25 9.1913C14.1152 9.44565 13.7148 10.1392 12.5253 12.1986C12.4765 12.2831 12.4635 12.3811 12.4884 12.4749C12.5137 12.5687 12.5742 12.6478 12.658 12.6961C12.9181 12.8455 13.2743 12.7491 13.4225 12.4908L14.4162 10.7705C14.4755 10.668 14.5956 10.6177 14.7107 10.6489C14.8252 10.6795 14.9047 10.7833 14.9047 10.9017V16.3099C14.9047 16.565 15.0972 16.7853 15.3339 16.8008C15.4703 16.8081 15.5976 16.7623 15.6932 16.6669C15.7801 16.5799 15.828 16.4642 15.828 16.3403V12.8034C15.828 12.6587 15.9452 12.5415 16.0899 12.5415C16.2345 12.5415 16.3518 12.6586 16.3518 12.8034L16.3516 17.1443C16.3516 17.3988 16.5587 17.6059 16.8133 17.6059C16.9369 17.6059 17.053 17.5581 17.1401 17.4711C17.227 17.3841 17.2749 17.268 17.2749 17.1443V12.8034C17.2749 12.6587 17.392 12.5415 17.5368 12.5415C17.6814 12.5415 17.7987 12.6586 17.7987 12.8034L17.7985 16.2997V16.3403C17.7985 16.5947 18.0057 16.8018 18.2603 16.8018C18.3838 16.8018 18.4996 16.7538 18.5872 16.6665C18.6741 16.5798 18.722 16.464 18.722 16.3402V12.8032C18.722 12.6585 18.8391 12.5413 18.9839 12.5413C19.1285 12.5413 19.2458 12.6584 19.2458 12.8032L19.2454 15.473C19.2454 15.7277 19.4526 15.9348 19.7069 15.9348C19.8307 15.9348 19.9465 15.8867 20.0334 15.8C20.1207 15.7127 20.1684 15.5966 20.1684 15.473L20.1685 10.0615C20.1685 8.25677 18.8327 6.78819 17.1906 6.78819L17.1906 6.78813Z" fill="#103E13"/>
<path d="M9.41723 20.2195L13.2176 17.9396C13.6758 17.6644 14.2653 17.7814 14.5592 18.2059C14.6664 18.3606 14.7212 18.5408 14.7297 18.7243C14.8714 18.6504 15.0256 18.6102 15.1825 18.6102C15.2629 18.6102 15.3436 18.6202 15.4233 18.64C15.6786 18.7038 15.8938 18.8634 16.0291 19.089C16.1645 19.315 16.204 19.5799 16.1403 19.8349C16.0814 20.0709 15.9379 20.2695 15.7383 20.4058C15.8779 20.4881 15.9982 20.6004 16.0838 20.7434C16.2193 20.9694 16.2588 21.2341 16.1952 21.4894C16.1314 21.7445 15.9718 21.9596 15.7459 22.0953L15.7445 22.0961C15.8816 22.1782 15.9999 22.2894 16.0845 22.4303C16.2201 22.6563 16.2596 22.9211 16.1959 23.1764C16.1319 23.4316 15.9723 23.6468 15.7467 23.7822L11.1064 26.566C10.2404 27.0854 9.23917 27.2646 8.28769 27.0703C7.32769 26.8742 6.53263 26.3224 6.04921 25.5165C5.28417 24.2414 5.39882 22.735 6.34784 21.5852C6.3913 21.5328 6.4341 21.4793 6.47296 21.4239C6.51413 21.3653 6.56218 21.2964 6.57857 21.2728C6.6768 21.0973 8.27969 18.2094 8.27952 18.2098C8.44138 17.9177 8.74476 17.7524 9.05766 17.7525C9.20361 17.7525 9.3517 17.7885 9.48831 17.8642C9.65329 17.9564 9.79186 18.0907 9.88878 18.2526C10.088 18.5846 10.0951 19.0002 9.90748 19.3365L9.41723 20.2195ZM9.44003 18.5218C9.38919 18.437 9.31933 18.3694 9.23389 18.3215C9.05727 18.2238 8.83489 18.2874 8.73766 18.4634C7.59071 20.5297 7.19973 21.2339 7.04885 21.4845L7.05229 21.4853C7.03966 21.5273 7.03966 21.5273 6.90158 21.7246C6.85468 21.7913 6.80368 21.8554 6.75169 21.9186C5.93565 22.9073 5.84089 24.1515 6.498 25.2471C6.90502 25.9257 7.57773 26.391 8.39227 26.5572C9.21566 26.7247 10.0835 26.5689 10.8368 26.1169L15.4775 23.333C15.5834 23.2696 15.6582 23.1687 15.688 23.0492C15.7179 22.9298 15.6993 22.8056 15.6357 22.6997C15.5048 22.4816 15.2206 22.4099 15.0025 22.5413L12.7132 23.9147C12.5892 23.9892 12.4282 23.9492 12.3539 23.825C12.2795 23.701 12.3196 23.5402 12.4436 23.4657L14.7331 22.0923L15.4766 21.6462C15.5826 21.5826 15.6575 21.4817 15.6874 21.3625C15.7172 21.2429 15.6987 21.1186 15.6351 21.0129C15.504 20.7946 15.2198 20.7236 15.0019 20.8544L11.9688 22.6739C11.8445 22.7486 11.684 22.7082 11.6095 22.5842C11.5351 22.4603 11.5754 22.2994 11.6992 22.2249L15.4217 19.9919C15.5276 19.9282 15.6024 19.8275 15.6323 19.708C15.6621 19.5886 15.6436 19.4645 15.5801 19.3585C15.5167 19.2528 15.4158 19.178 15.2963 19.1481C15.176 19.1183 15.0524 19.1368 14.9468 19.2001L14.2577 19.6135C14.2575 19.6135 14.2575 19.6137 14.2574 19.6137H14.2572L11.2243 21.4332C11.1 21.508 10.9393 21.4676 10.865 21.3435C10.7906 21.2195 10.8309 21.0587 10.9547 20.9842L13.9878 19.1647C14.0937 19.1011 14.1686 19.0002 14.1985 18.881C14.2313 18.7501 14.2064 18.6163 14.1286 18.5041C13.9938 18.3091 13.7055 18.2573 13.4869 18.3887L8.8496 21.1707C8.74808 21.2313 8.61804 21.2166 8.53292 21.1344C8.44765 21.0521 8.42846 20.9227 8.48586 20.8192L9.45015 19.0819C9.5469 18.9082 9.54313 18.6937 9.43998 18.5218L9.44003 18.5218Z" fill="#103E13"/>
<path d="M27.577 25.5164C27.0937 26.3224 26.2989 26.8741 25.3387 27.0702C24.387 27.2642 23.3862 27.0853 22.52 26.5659L17.8793 23.782C17.6534 23.6465 17.4937 23.4314 17.4298 23.1759C17.3663 22.9209 17.406 22.656 17.5413 22.4303C17.6257 22.2893 17.7441 22.1781 17.8814 22.096L17.8801 22.0951C17.6543 21.9597 17.4945 21.7445 17.4309 21.4893C17.367 21.2342 17.4066 20.9691 17.5421 20.7432C17.6293 20.5981 17.7489 20.4846 17.8853 20.4041C17.6872 20.2678 17.5446 20.0699 17.4859 19.835C17.4219 19.5797 17.4616 19.3148 17.597 19.0891C17.7323 18.8633 17.9477 18.7038 18.2028 18.64C18.2825 18.62 18.3634 18.6101 18.4434 18.6101C18.6005 18.6103 18.7547 18.6501 18.8964 18.7243C18.9051 18.5408 18.9597 18.3605 19.0669 18.2059C19.361 17.7816 19.95 17.6642 20.4089 17.9396L24.2091 20.2191L23.7192 19.3368C23.5313 18.9999 23.5382 18.5844 23.7375 18.2521C23.8345 18.0904 23.9733 17.9561 24.1391 17.8631C24.2753 17.7877 24.4229 17.7519 24.5685 17.7519C24.8813 17.7521 25.185 17.9171 25.3467 18.2092C25.9102 19.2245 26.9735 21.1392 27.0483 21.2729C27.0642 21.296 27.1122 21.3649 27.1534 21.4234C27.1926 21.479 27.2349 21.5322 27.2787 21.585C28.2275 22.7352 28.342 24.2415 27.577 25.5164L27.577 25.5164ZM26.8746 21.9187C26.8225 21.8556 26.7713 21.7911 26.7248 21.7247C26.5831 21.5237 26.5795 21.5184 26.5688 21.4658C26.4032 21.1917 25.9991 20.4643 24.8884 18.4632C24.791 18.2876 24.5696 18.2235 24.3933 18.3209C24.3065 18.3694 24.2368 18.4371 24.186 18.5219C24.083 18.6936 24.0791 18.9081 24.1763 19.0823L25.1403 20.8191C25.1978 20.9228 25.1786 21.052 25.0935 21.1343C25.0086 21.2168 24.8787 21.2312 24.7767 21.1706L20.1394 18.3886C19.9208 18.2576 19.6326 18.3089 19.4975 18.504C19.4198 18.6162 19.395 18.75 19.4275 18.8807C19.4573 19.0001 19.5323 19.1008 19.6384 19.1644C19.6387 19.1646 19.6389 19.1649 19.6392 19.1651L22.6713 20.9841C22.7952 21.0585 22.8354 21.2193 22.761 21.3434C22.6865 21.4672 22.526 21.5077 22.4016 21.4331L18.6792 19.2C18.5736 19.1367 18.4493 19.118 18.3299 19.148C18.2102 19.1779 18.1095 19.2527 18.046 19.3588C17.9824 19.4646 17.964 19.5887 17.9935 19.7081C18.0234 19.8275 18.0983 19.9283 18.2043 19.992L18.9286 20.4264L21.9266 22.2251C22.0505 22.2995 22.0907 22.4602 22.0163 22.5844C21.9418 22.7082 21.7813 22.7485 21.657 22.6741L18.6243 20.8546C18.4061 20.7234 18.1221 20.7945 17.9909 21.013C17.9273 21.1189 17.9089 21.2431 17.9384 21.3625C17.9683 21.4818 18.0432 21.5825 18.1493 21.6463L18.8929 22.0924L21.182 23.4658C21.306 23.5403 21.3462 23.701 21.2717 23.8251C21.1973 23.9489 21.0367 23.9896 20.9124 23.9148L18.6233 22.5414C18.5177 22.4781 18.3938 22.4594 18.2738 22.4894C18.1544 22.5193 18.0534 22.594 17.9899 22.6998C17.9265 22.8057 17.9079 22.9301 17.9374 23.0493C17.9673 23.1687 18.0422 23.2694 18.1483 23.3331L22.789 26.1171C23.5421 26.5689 24.4106 26.7253 25.2335 26.5574C26.0479 26.3911 26.7206 25.9258 27.1276 25.2472C27.7854 24.1514 27.6908 22.9071 26.8749 21.9187L26.8746 21.9187Z" fill="#103E13"/>
</svg>
